<?xml version="1.0" encoding="UTF-8" standalone="no"?>
<!-- Created with Inkscape (http://www.inkscape.org/) -->

<svg
   xmlns:dc="http://purl.org/dc/elements/1.1/"
   xmlns:cc="http://creativecommons.org/ns#"
   xmlns:rdf="http://www.w3.org/1999/02/22-rdf-syntax-ns#"
   xmlns:svg="http://www.w3.org/2000/svg"
   xmlns="http://www.w3.org/2000/svg"
   xmlns:sodipodi="http://sodipodi.sourceforge.net/DTD/sodipodi-0.dtd"
   xmlns:inkscape="http://www.inkscape.org/namespaces/inkscape"
   width="774.66431mm"
   height="414.15201mm"
   viewBox="0 0 2744.8735 1467.4677"
   id="svg2"
   version="1.1"
   inkscape:version="0.91 r13725"
   sodipodi:docname="logo.svg"
   inkscape:export-filename="/home/adam/Projects/brewmasterblog/logo.png"
   inkscape:export-xdpi="19.380323"
   inkscape:export-ydpi="19.380323">
  <defs
     id="defs4" />
  <sodipodi:namedview
     id="base"
     pagecolor="#242424"
     bordercolor="#666666"
     borderopacity="1.0"
     inkscape:pageopacity="0"
     inkscape:pageshadow="2"
     inkscape:zoom="0.35"
     inkscape:cx="1538.4751"
     inkscape:cy="791.02329"
     inkscape:document-units="px"
     inkscape:current-layer="layer1"
     showgrid="false"
     inkscape:window-width="1920"
     inkscape:window-height="1021"
     inkscape:window-x="0"
     inkscape:window-y="27"
     inkscape:window-maximized="1"
     fit-margin-top="20"
     fit-margin-left="20"
     fit-margin-right="20"
     fit-margin-bottom="20" />
  <metadata
     id="metadata7">
    <rdf:RDF>
      <cc:Work
         rdf:about="">
        <dc:format>image/svg+xml</dc:format>
        <dc:type
           rdf:resource="http://purl.org/dc/dcmitype/StillImage" />
        <dc:title />
      </cc:Work>
    </rdf:RDF>
  </metadata>
  <g
     inkscape:label="Layer 1"
     inkscape:groupmode="layer"
     id="layer1"
     transform="translate(3111.4327,-361.63204)">
    <g
       id="g3812"
       transform="matrix(1.1115884,0,0,1.1115884,44.335951,1120.8685)"
       style="fill:#4d4d4d">
      <g
         transform="matrix(6.7855392,0,0,6.7855392,-1138.9533,-295.85788)"
         id="g3776"
         style="fill:#4d4d4d">
        <path
           id="path3778"
           d="m 28.313,50.242 c -4.963,0 -9.627,1.933 -13.137,5.441 -3.51,3.51 -5.442,8.176 -5.442,13.137 0,4.963 1.933,9.629 5.442,13.137 3.51,3.51 8.175,5.443 13.138,5.443 0.001,0 0.001,0 0.001,0 4.962,0 9.627,-1.934 13.137,-5.443 3.508,-3.508 5.441,-8.172 5.441,-13.135 C 46.892,63.859 44.959,59.193 41.452,55.683 37.941,52.175 33.275,50.242 28.313,50.242 Z M 16.59,80.542 C 14.762,78.714 13.428,76.526 12.622,74.146 L 22.986,84.511 C 20.605,83.704 18.419,82.372 16.59,80.542 Z m 11.724,4.857 0,0 c -0.572,0 -1.139,-0.031 -1.699,-0.088 L 11.82,70.517 c -0.056,-0.561 -0.087,-1.127 -0.087,-1.697 0,-1.055 0.104,-2.094 0.296,-3.107 l 19.393,19.391 c -1.015,0.19 -2.053,0.295 -3.108,0.295 z M 33.652,84.507 12.627,63.479 c 0.404,-1.189 0.943,-2.326 1.611,-3.398 l 22.814,22.814 c -1.072,0.668 -2.209,1.208 -3.4,1.612 z m 6.385,-3.965 c -0.423,0.422 -0.867,0.814 -1.324,1.186 L 15.406,58.421 c 0.37,-0.457 0.762,-0.902 1.184,-1.324 0.422,-0.422 0.865,-0.813 1.322,-1.182 L 41.219,79.22 c -0.369,0.457 -0.761,0.9 -1.182,1.322 z m 2.35,-2.98 -22.815,-22.815 c 1.072,-0.67 2.211,-1.209 3.402,-1.613 l 21.024,21.025 c -0.403,1.192 -0.942,2.33 -1.611,3.403 z m 2.506,-8.741 c 0,1.055 -0.105,2.092 -0.297,3.107 L 25.205,52.538 c 1.015,-0.191 2.053,-0.297 3.107,-0.297 0.57,0 1.137,0.031 1.696,0.088 l 14.796,14.797 c 0.057,0.561 0.089,1.125 0.089,1.695 z M 33.637,53.13 c 2.382,0.805 4.57,2.139 6.4,3.967 1.829,1.83 3.162,4.02 3.968,6.4 L 33.637,53.13 Z"
           inkscape:connector-curvature="0"
           style="fill:#4d4d4d" />
        <path
           id="path3780"
           d="m 71.688,46.133 c -1.798,0 -3.545,0.217 -5.224,0.614 C 74.865,37.87 74.739,23.825 66.043,15.129 57.197,6.283 42.804,6.282 33.958,15.128 25.262,23.824 25.135,37.87 33.537,46.747 31.859,46.35 30.111,46.133 28.312,46.133 15.802,46.133 5.624,56.31 5.624,68.82 c 0,12.51 10.178,22.688 22.688,22.688 10.192,0 18.835,-6.756 21.688,-16.025 2.854,9.27 11.495,16.025 21.688,16.025 12.51,0 22.688,-10.178 22.688,-22.688 0,-12.51 -10.179,-22.687 -22.688,-22.687 z M 35.372,16.542 c 8.065,-8.065 21.19,-8.065 29.256,0 8.067,8.066 8.066,21.19 0.001,29.256 -8.067,8.068 -21.19,8.068 -29.257,0 -8.065,-8.065 -8.066,-21.189 0,-29.256 z M 55.248,53.21 c -2.385,2.51 -4.205,5.559 -5.248,8.947 -1.043,-3.389 -2.863,-6.438 -5.248,-8.947 3.451,0.814 7.046,0.814 10.496,0 z M 28.313,89.507 C 16.907,89.507 7.625,80.228 7.625,68.819 7.625,57.413 16.906,48.132 28.313,48.132 39.721,48.133 49,57.413 49,68.819 49,80.228 39.721,89.507 28.313,89.507 Z m 43.375,0 C 60.281,89.507 51,80.228 51,68.819 51,57.413 60.281,48.132 71.688,48.132 c 11.408,0 20.688,9.28 20.688,20.687 -0.001,11.409 -9.28,20.688 -20.688,20.688 z"
           inkscape:connector-curvature="0"
           style="fill:#4d4d4d" />
        <path
           id="path3782"
           d="m 84.824,55.683 c -3.508,-3.51 -8.174,-5.442 -13.137,-5.442 -4.961,0 -9.627,1.932 -13.137,5.442 -3.51,3.51 -5.441,8.176 -5.441,13.139 l 0,0 c 0,4.963 1.932,9.627 5.441,13.137 3.508,3.508 8.174,5.441 13.137,5.441 4.963,0 9.629,-1.934 13.137,-5.441 3.51,-3.51 5.441,-8.176 5.441,-13.139 0,-4.963 -1.931,-9.628 -5.441,-13.137 z m -24.859,1.414 c 1.83,-1.828 4.018,-3.162 6.396,-3.967 L 55.998,63.493 c 0.807,-2.381 2.139,-4.566 3.967,-6.396 z m -4.856,11.724 c 0,-0.572 0.031,-1.139 0.088,-1.699 L 69.992,52.327 c 0.561,-0.055 1.125,-0.086 1.695,-0.086 1.055,0 2.094,0.104 3.109,0.295 L 55.404,71.929 c -0.191,-1.014 -0.295,-2.053 -0.295,-3.108 z m 2.504,8.739 c -0.668,-1.072 -1.207,-2.209 -1.611,-3.4 L 77.027,53.135 c 1.189,0.404 2.328,0.943 3.398,1.611 L 57.613,77.56 Z m 2.352,2.984 C 59.543,80.122 59.151,79.677 58.781,79.22 L 82.086,55.913 c 0.459,0.371 0.902,0.762 1.324,1.184 0.422,0.422 0.813,0.865 1.184,1.322 L 61.287,81.726 c -0.457,-0.37 -0.9,-0.76 -1.322,-1.182 z m 2.982,2.35 22.814,-22.814 c 0.668,1.072 1.207,2.211 1.611,3.402 L 66.348,84.507 c -1.19,-0.404 -2.328,-0.944 -3.401,-1.613 z m 20.463,-2.35 c -1.83,1.83 -4.018,3.162 -6.4,3.969 L 87.379,74.144 c -0.807,2.382 -2.139,4.57 -3.969,6.4 z m -10.029,4.768 c -0.559,0.057 -1.123,0.088 -1.693,0.088 -1.055,0 -2.094,-0.105 -3.107,-0.297 L 87.972,65.712 c 0.191,1.016 0.295,2.053 0.295,3.107 0,0.57 -0.031,1.137 -0.088,1.697 L 73.381,85.312 Z"
           inkscape:connector-curvature="0"
           style="fill:#4d4d4d" />
        <path
           id="path3784"
           d="m 49.999,49.75 c 4.964,0 9.629,-1.934 13.138,-5.442 3.51,-3.51 5.441,-8.173 5.441,-13.137 0.002,-4.962 -1.931,-9.628 -5.44,-13.138 -3.508,-3.508 -8.174,-5.44 -13.138,-5.44 -4.963,0 -9.628,1.933 -13.137,5.442 -10e-4,0 -10e-4,0 -10e-4,0 -3.509,3.509 -5.441,8.174 -5.441,13.137 0,4.961 1.932,9.628 5.441,13.137 3.509,3.509 8.176,5.441 13.137,5.441 z m 0,-2 c -2.588,-10e-4 -5.077,-0.605 -7.331,-1.721 l 14.663,10e-4 c -2.255,1.114 -4.744,1.72 -7.332,1.72 z M 50,14.592 c 2.587,10e-4 5.077,0.604 7.329,1.717 L 42.673,16.31 C 44.927,15.197 47.414,14.592 50,14.592 Z m -11.724,4.857 c 0.405,-0.404 0.827,-0.782 1.264,-1.139 l 20.924,0 c 0.436,0.356 0.856,0.733 1.26,1.137 0.746,0.746 1.406,1.555 1.989,2.408 l -27.425,0 c 0.582,-0.853 1.242,-1.66 1.988,-2.406 z m -3.143,4.406 29.734,0 c 0.556,1.127 0.979,2.313 1.264,3.542 l -32.263,0.002 c 0.286,-1.231 0.709,-2.416 1.265,-3.544 z m -1.712,7.316 c 0,-0.597 0.037,-1.188 0.1,-1.773 L 66.48,29.397 c 0.063,0.586 0.1,1.177 0.1,1.773 0,0.596 -0.038,1.187 -0.099,1.771 l -32.96,0 c -0.063,-0.583 -0.1,-1.173 -0.1,-1.77 z m 0.447,3.771 32.265,0 c -0.286,1.23 -0.71,2.417 -1.267,3.545 l -29.733,0 c -0.556,-1.127 -0.98,-2.314 -1.265,-3.545 z m 29.844,5.545 c -0.582,0.853 -1.243,1.66 -1.989,2.406 -0.403,0.403 -0.825,0.781 -1.262,1.137 l -20.925,0 C 39.1,43.675 38.68,43.298 38.276,42.894 37.53,42.148 36.87,41.339 36.289,40.487 l 27.423,0 z"
           inkscape:connector-curvature="0"
           style="fill:#4d4d4d" />
      </g>
    </g>
    <text
       xml:space="preserve"
       style="font-style:normal;font-weight:normal;font-size:97.41536713px;line-height:125%;font-family:sans-serif;letter-spacing:0px;word-spacing:0px;fill:#b3b3b3;fill-opacity:1;stroke:none;stroke-width:1px;stroke-linecap:butt;stroke-linejoin:miter;stroke-opacity:1"
       x="-2899.9548"
       y="834.55969"
       id="text3819"
       sodipodi:linespacing="125%"><tspan
         sodipodi:role="line"
         id="tspan3821"
         x="-2899.9548"
         y="834.55969"
         style="font-style:normal;font-variant:normal;font-weight:normal;font-stretch:normal;font-size:438.36914062px;font-family:Blink;-inkscape-font-specification:Blink;fill:#b3b3b3">Brewmaster's</tspan></text>
    <text
       xml:space="preserve"
       style="font-style:normal;font-weight:normal;font-size:40px;line-height:125%;font-family:sans-serif;letter-spacing:0px;word-spacing:0px;fill:#666666;fill-opacity:1;stroke:none;stroke-width:1px;stroke-linecap:butt;stroke-linejoin:miter;stroke-opacity:1"
       x="-2685.3433"
       y="556.69818"
       id="text3819-3"
       sodipodi:linespacing="125%"><tspan
         sodipodi:role="line"
         id="tspan3821-6"
         x="-2685.3433"
         y="556.69818"
         style="font-style:normal;font-variant:normal;font-weight:500;font-stretch:normal;font-size:180px;font-family:BigSlabHammer;-inkscape-font-specification:'BigSlabHammer Medium';fill:#666666">THE</tspan></text>
    <text
       xml:space="preserve"
       style="font-style:normal;font-weight:normal;font-size:87.99159241px;line-height:125%;font-family:sans-serif;letter-spacing:0px;word-spacing:0px;fill:#666666;fill-opacity:1;stroke:none;stroke-width:1px;stroke-linecap:butt;stroke-linejoin:miter;stroke-opacity:1"
       x="-2892.2576"
       y="914.36243"
       id="text3819-7"
       sodipodi:linespacing="125%"><tspan
         sodipodi:role="line"
         id="tspan3821-5"
         x="-2892.2576"
         y="914.36243"
         style="font-style:normal;font-variant:normal;font-weight:normal;font-stretch:normal;font-size:395.96218872px;font-family:'Space and Astronomy';-inkscape-font-specification:'Space and Astronomy';fill:#666666" /><tspan
         sodipodi:role="line"
         x="-2892.2576"
         y="1409.3152"
         style="font-style:normal;font-variant:normal;font-weight:normal;font-stretch:normal;font-size:395.96218872px;font-family:'Space and Astronomy';-inkscape-font-specification:'Space and Astronomy';fill:#666666"
         id="tspan3456">Galaxy</tspan></text>
    <text
       xml:space="preserve"
       style="font-style:normal;font-weight:normal;font-size:131.1308136px;line-height:125%;font-family:sans-serif;letter-spacing:0px;word-spacing:0px;fill:#b3b3b3;fill-opacity:1;stroke:none;stroke-width:1px;stroke-linecap:butt;stroke-linejoin:miter;stroke-opacity:1"
       x="-2871.77"
       y="1595.1819"
       id="text3819-3-3"
       sodipodi:linespacing="125%"
       transform="matrix(1.0548292,-0.0985523,0.11086701,0.93766252,0,0)"><tspan
         sodipodi:role="line"
         id="tspan3821-6-5"
         x="-2871.77"
         y="1595.1819"
         style="font-style:normal;font-variant:normal;font-weight:500;font-stretch:normal;font-size:590.08868408px;font-family:McHandwriting;-inkscape-font-specification:'McHandwriting Medium';fill:#b3b3b3">Internet</tspan></text>
    <text
       xml:space="preserve"
       style="font-style:normal;font-weight:normal;font-size:132.9720459px;line-height:125%;font-family:sans-serif;letter-spacing:0px;word-spacing:0px;fill:#666666;fill-opacity:1;stroke:none;stroke-width:1px;stroke-linecap:butt;stroke-linejoin:miter;stroke-opacity:1"
       x="-2588.4011"
       y="1070.7733"
       id="text3458"
       sodipodi:linespacing="125%"><tspan
         sodipodi:role="line"
         id="tspan3460"
         x="-2588.4011"
         y="1070.7733"
         style="font-style:normal;font-variant:normal;font-weight:normal;font-stretch:normal;font-size:265.9440918px;font-family:Sawasdee;-inkscape-font-specification:Sawasdee;fill:#666666">guide to the</tspan></text>
    <text
       xml:space="preserve"
       style="font-style:normal;font-weight:normal;font-size:40px;line-height:125%;font-family:sans-serif;letter-spacing:0px;word-spacing:0px;fill:#333333;fill-opacity:1;stroke:none;stroke-width:1px;stroke-linecap:butt;stroke-linejoin:miter;stroke-opacity:1"
       x="-1077.1429"
       y="1675.2194"
       id="text3462"
       sodipodi:linespacing="125%"><tspan
         sodipodi:role="line"
         id="tspan3464"
         x="-1077.1429"
         y="1675.2194"
         style="font-style:normal;font-variant:normal;font-weight:500;font-stretch:normal;font-size:180px;font-family:McHandwriting;-inkscape-font-specification:'McHandwriting Medium';fill:#333333" /></text>
    <text
       xml:space="preserve"
       style="font-style:normal;font-weight:normal;font-size:180px;line-height:125%;font-family:sans-serif;letter-spacing:0px;word-spacing:0px;fill:#333333;fill-opacity:1;stroke:none;stroke-width:1px;stroke-linecap:butt;stroke-linejoin:miter;stroke-opacity:1"
       x="-1200"
       y="1646.6479"
       id="text3466"
       sodipodi:linespacing="125%"><tspan
         sodipodi:role="line"
         id="tspan3468"
         x="-1200"
         y="1646.6479"
         style="font-style:normal;font-variant:normal;font-weight:500;font-stretch:normal;font-family:McHandwriting;-inkscape-font-specification:'McHandwriting Medium';fill:#333333" /></text>
    <text
       xml:space="preserve"
       style="font-style:normal;font-weight:normal;font-size:875.48907471px;line-height:125%;font-family:sans-serif;letter-spacing:0px;word-spacing:0px;fill:#b3b3b3;fill-opacity:1;stroke:none;stroke-width:1px;stroke-linecap:butt;stroke-linejoin:miter;stroke-opacity:1"
       x="-4213.9346"
       y="1817.703"
       id="text3470-3"
       sodipodi:linespacing="125%"
       transform="matrix(-0.59947834,-0.41883739,-2.841321,-0.31702807,0,0)"><tspan
         sodipodi:role="line"
         x="-4213.9346"
         y="1817.703"
         id="tspan3474-3"
         style="font-style:normal;font-variant:normal;font-weight:500;font-stretch:normal;font-family:McHandwriting;-inkscape-font-specification:'McHandwriting Medium';fill:#b3b3b3">|</tspan></text>
    <text
       xml:space="preserve"
       style="font-style:normal;font-weight:normal;font-size:682.26104736px;line-height:125%;font-family:sans-serif;letter-spacing:0px;word-spacing:0px;fill:#b3b3b3;fill-opacity:1;stroke:none;stroke-width:1px;stroke-linecap:butt;stroke-linejoin:miter;stroke-opacity:1"
       x="-3994.4771"
       y="1778.1216"
       id="text3470"
       sodipodi:linespacing="125%"
       transform="matrix(-0.82145596,-0.28575576,-3.29468,0.07124691,0,0)"><tspan
         sodipodi:role="line"
         x="-3994.4771"
         y="1778.1216"
         id="tspan3474"
         style="font-style:normal;font-variant:normal;font-weight:500;font-stretch:normal;font-family:McHandwriting;-inkscape-font-specification:'McHandwriting Medium';fill:#b3b3b3">|</tspan></text>
  </g>
</svg>
